HIERARCHY
ROOT Hips
{
	OFFSET 0.000000 97.167313 0.000000
	CHANNELS 6 Xposition Yposition Zposition Xrotation Yrotation Zrotation
	JOINT Spine
	{
		OFFSET 0.000000 13.784798 0.064400
		CHANNELS 3 Xrotation Yrotation Zrotation
		JOINT Spine1
		{
			OFFSET 0.000000 12.037903 0.404700
			CHANNELS 3 Xrotation Yrotation Zrotation
			JOINT Spine2
			{
				OFFSET 0.000000 17.795601 0.420200
				CHANNELS 3 Xrotation Yrotation Zrotation
				JOINT Neck
				{
					OFFSET 0.000000 39.131302 11.954600
					CHANNELS 3 Xrotation Yrotation Zrotation
					JOINT Head
					{
						OFFSET 0.000000 14.456192 15.627699
						CHANNELS 3 Xrotation Yrotation Zrotation
						JOINT HeadTop_End
						{
							OFFSET 0.000000 15.703506 7.603401
							CHANNELS 3 Xrotation Yrotation Zrotation
							End Site
							{
								OFFSET 0.000000 17.447403 0.000000
							}
						}
					}
				}
				JOINT LeftShoulder
				{
					OFFSET 17.399500 24.608795 1.168800
					CHANNELS 3 Xrotation Yrotation Zrotation
					JOINT LeftArm
					{
						OFFSET 18.980635 5.765305 1.818600
						CHANNELS 3 Xrotation Yrotation Zrotation
						JOINT LeftForeArm
						{
							OFFSET 49.290169 0.000000 0.000000
							CHANNELS 3 Xrotation Yrotation Zrotation
							JOINT LeftHand
							{
								OFFSET 31.562012 0.000000 0.000000
								CHANNELS 3 Xrotation Yrotation Zrotation
								JOINT LeftHandThumb1
								{
									OFFSET 6.133995 -4.388519 7.076070
									CHANNELS 3 Xrotation Yrotation Zrotation
									JOINT LeftHandThumb2
									{
										OFFSET 6.037666 -3.485840 3.485847
										CHANNELS 3 Xrotation Yrotation Zrotation
										JOINT LeftHandThumb3
										{
											OFFSET 6.496506 -3.750763 3.750761
											CHANNELS 3 Xrotation Yrotation Zrotation
											JOINT LeftHandThumb4
											{
												OFFSET 5.616882 -3.242905 3.242910
												CHANNELS 3 Xrotation Yrotation Zrotation
												End Site
												{
													OFFSET -1.254608 7.132141 0.375429
												}
											}
										}
									}
								}
								JOINT LeftHandPinky1
								{
									OFFSET 18.920792 -0.453171 -11.426712
									CHANNELS 3 Xrotation Yrotation Zrotation
									JOINT LeftHandPinky2
									{
										OFFSET 4.919586 0.000000 0.000000
										CHANNELS 3 Xrotation Yrotation Zrotation
										JOINT LeftHandPinky3
										{
											OFFSET 5.233047 0.000000 0.000000
											CHANNELS 3 Xrotation Yrotation Zrotation
											JOINT LeftHandPinky4
											{
												OFFSET 5.571716 0.000000 0.000000
												CHANNELS 3 Xrotation Yrotation Zrotation
												End Site
												{
													OFFSET -3.459808 4.342407 -0.466164
												}
											}
										}
									}
								}
								JOINT LeftHandRing1
								{
									OFFSET 22.726120 -0.094986 -6.500475
									CHANNELS 3 Xrotation Yrotation Zrotation
									JOINT LeftHandRing2
									{
										OFFSET 6.408615 0.000000 0.000000
										CHANNELS 3 Xrotation Yrotation Zrotation
										JOINT LeftHandRing3
										{
											OFFSET 6.150223 0.000000 0.000000
											CHANNELS 3 Xrotation Yrotation Zrotation
											JOINT LeftHandRing4
											{
												OFFSET 6.145386 0.000000 0.000000
												CHANNELS 3 Xrotation Yrotation Zrotation
												End Site
												{
													OFFSET -3.671402 4.923981 -0.202372
												}
											}
										}
									}
								}
								JOINT LeftHandMiddle1
								{
									OFFSET 23.373947 0.000000 0.000001
									CHANNELS 3 Xrotation Yrotation Zrotation
									JOINT LeftHandMiddle2
									{
										OFFSET 6.996567 0.000000 0.000000
										CHANNELS 3 Xrotation Yrotation Zrotation
										JOINT LeftHandMiddle3
										{
											OFFSET 7.015945 0.000000 0.000000
											CHANNELS 3 Xrotation Yrotation Zrotation
											JOINT LeftHandMiddle4
											{
												OFFSET 7.721573 0.000000 0.000000
												CHANNELS 3 Xrotation Yrotation Zrotation
												End Site
												{
													OFFSET -4.651108 6.158463 0.251582
												}
											}
										}
									}
								}
								JOINT LeftHandIndex1
								{
									OFFSET 21.310577 -0.490082 6.209344
									CHANNELS 3 Xrotation Yrotation Zrotation
									JOINT LeftHandIndex2
									{
										OFFSET 7.536453 0.000000 0.000000
										CHANNELS 3 Xrotation Yrotation Zrotation
										JOINT LeftHandIndex3
										{
											OFFSET 7.512344 0.000000 0.000000
											CHANNELS 3 Xrotation Yrotation Zrotation
											JOINT LeftHandIndex4
											{
												OFFSET 10.212402 0.000000 0.000001
												CHANNELS 3 Xrotation Yrotation Zrotation
												End Site
												{
													OFFSET -5.180801 8.690506 1.388433
												}
											}
										}
									}
								}
							}
						}
					}
				}
				JOINT RightShoulder
				{
					OFFSET -17.399500 24.608795 1.168800
					CHANNELS 3 Xrotation Yrotation Zrotation
					JOINT RightArm
					{
						OFFSET -18.980635 5.765305 1.818600
						CHANNELS 3 Xrotation Yrotation Zrotation
						JOINT RightForeArm
						{
							OFFSET -49.290169 0.000000 0.000000
							CHANNELS 3 Xrotation Yrotation Zrotation
							JOINT RightHand
							{
								OFFSET -31.562012 0.000000 0.000000
								CHANNELS 3 Xrotation Yrotation Zrotation
								JOINT RightHandThumb1
								{
									OFFSET -6.133995 -4.388519 7.076070
									CHANNELS 3 Xrotation Yrotation Zrotation
									JOINT RightHandThumb2
									{
										OFFSET -6.037666 -3.485840 3.485847
										CHANNELS 3 Xrotation Yrotation Zrotation
										JOINT RightHandThumb3
										{
											OFFSET -6.496506 -3.750763 3.750761
											CHANNELS 3 Xrotation Yrotation Zrotation
											JOINT RightHandThumb4
											{
												OFFSET -5.616882 -3.242905 3.242910
												CHANNELS 3 Xrotation Yrotation Zrotation
												End Site
												{
													OFFSET 1.254608 7.132141 0.375429
												}
											}
										}
									}
								}
								JOINT RightHandIndex1
								{
									OFFSET -21.310577 -0.490082 6.209344
									CHANNELS 3 Xrotation Yrotation Zrotation
									JOINT RightHandIndex2
									{
										OFFSET -7.536453 0.000000 0.000000
										CHANNELS 3 Xrotation Yrotation Zrotation
										JOINT RightHandIndex3
										{
											OFFSET -7.512344 0.000000 0.000000
											CHANNELS 3 Xrotation Yrotation Zrotation
											JOINT RightHandIndex4
											{
												OFFSET -10.212402 0.000000 0.000001
												CHANNELS 3 Xrotation Yrotation Zrotation
												End Site
												{
													OFFSET 5.180801 8.690506 1.388433
												}
											}
										}
									}
								}
								JOINT RightHandMiddle1
								{
									OFFSET -23.373947 0.000000 0.000001
									CHANNELS 3 Xrotation Yrotation Zrotation
									JOINT RightHandMiddle2
									{
										OFFSET -6.996567 0.000000 0.000000
										CHANNELS 3 Xrotation Yrotation Zrotation
										JOINT RightHandMiddle3
										{
											OFFSET -7.015945 0.000000 0.000000
											CHANNELS 3 Xrotation Yrotation Zrotation
											JOINT RightHandMiddle4
											{
												OFFSET -7.721573 0.000000 0.000000
												CHANNELS 3 Xrotation Yrotation Zrotation
												End Site
												{
													OFFSET 4.651108 6.158463 0.251582
												}
											}
										}
									}
								}
								JOINT RightHandRing1
								{
									OFFSET -22.726120 -0.094986 -6.500475
									CHANNELS 3 Xrotation Yrotation Zrotation
									JOINT RightHandRing2
									{
										OFFSET -6.408615 0.000000 0.000000
										CHANNELS 3 Xrotation Yrotation Zrotation
										JOINT RightHandRing3
										{
											OFFSET -6.150223 0.000000 0.000000
											CHANNELS 3 Xrotation Yrotation Zrotation
											JOINT RightHandRing4
											{
												OFFSET -6.145386 0.000000 0.000000
												CHANNELS 3 Xrotation Yrotation Zrotation
												End Site
												{
													OFFSET 3.671402 4.923981 -0.202372
												}
											}
										}
									}
								}
								JOINT RightHandPinky1
								{
									OFFSET -18.920792 -0.453171 -11.426712
									CHANNELS 3 Xrotation Yrotation Zrotation
									JOINT RightHandPinky2
									{
										OFFSET -4.919586 0.000000 0.000000
										CHANNELS 3 Xrotation Yrotation Zrotation
										JOINT RightHandPinky3
										{
											OFFSET -5.233047 0.000000 0.000000
											CHANNELS 3 Xrotation Yrotation Zrotation
											JOINT RightHandPinky4
											{
												OFFSET -5.571716 0.000000 0.000000
												CHANNELS 3 Xrotation Yrotation Zrotation
												End Site
												{
													OFFSET 3.459808 4.342407 -0.466164
												}
											}
										}
									}
								}
							}
						}
					}
				}
			}
		}
	}
	JOINT LeftUpLeg
	{
		OFFSET 19.899099 -7.885101 -3.429500
		CHANNELS 3 Xrotation Yrotation Zrotation
		JOINT LeftLeg
		{
			OFFSET 1.745560 -36.997807 10.304700
			CHANNELS 3 Xrotation Yrotation Zrotation
			JOINT LeftFoot
			{
				OFFSET -1.745558 -29.803308 -13.615400
				CHANNELS 3 Xrotation Yrotation Zrotation
				JOINT LeftToeBase
				{
					OFFSET 1.181900 -18.539904 15.226099
					CHANNELS 3 Xrotation Yrotation Zrotation
					JOINT LeftToe_End
					{
						OFFSET -0.863701 1.402801 16.534700
						CHANNELS 3 Xrotation Yrotation Zrotation
						End Site
						{
							OFFSET 0.000000 16.616566 0.000000
						}
					}
				}
			}
		}
	}
	JOINT RightUpLeg
	{
		OFFSET -19.899099 -7.885101 -3.429500
		CHANNELS 3 Xrotation Yrotation Zrotation
		JOINT RightLeg
		{
			OFFSET -1.745560 -36.997807 10.304700
			CHANNELS 3 Xrotation Yrotation Zrotation
			JOINT RightFoot
			{
				OFFSET 1.745558 -29.803308 -13.615400
				CHANNELS 3 Xrotation Yrotation Zrotation
				JOINT RightToeBase
				{
					OFFSET -1.181900 -18.539904 15.226099
					CHANNELS 3 Xrotation Yrotation Zrotation
					JOINT RightToe_End
					{
						OFFSET 0.863701 1.402801 16.534700
						CHANNELS 3 Xrotation Yrotation Zrotation
						End Site
						{
							OFFSET 0.000000 16.616566 0.000000
						}
					}
				}
			}
		}
	}
}
MOTION
Frames: 4
Frame Time: 0.033333
-7.306217 62.178795 3.741066 -27.833185 4.213524 -9.374832 14.362814 12.116242 -4.478467 1.361570 2.848195 0.144729 1.380799 2.822179 0.114131 3.479113 -1.932762 0.218963 8.764235 -20.296756 11.241918 -0.000000 -0.000000 -0.000000 -1.714894 9.899173 0.739518 25.814908 24.343629 -19.738847 0.000012 -41.661791 0.000003 13.204662 -15.596045 -11.762236 4.972947 -0.919246 4.455785 7.416837 13.559450 3.778467 -10.276932 -8.025437 12.851094 -0.000001 0.000001 -0.000001 2.244605 16.205452 -22.664082 0.579245 2.541859 -25.670858 0.579242 2.541865 -25.670848 -0.000001 0.000001 -0.000004 0.933455 5.741946 -20.414001 0.491129 2.349920 -23.606391 0.332270 1.946681 -19.370486 -0.000000 -0.000001 0.000005 -0.686698 0.199380 -14.655416 0.595560 2.575499 -26.036355 0.077073 0.948181 -9.294130 0.000001 -0.000001 0.000004 0.332620 -2.971043 -1.456185 0.830585 3.008820 -30.858262 0.830589 3.008809 -30.858286 -0.000004 0.000003 0.000002 0.821065 3.691071 -4.575239 29.787227 -12.015533 12.825450 0.000014 44.662262 -0.000007 26.446668 4.984177 32.606544 3.998981 2.832319 -3.864438 7.802580 -15.416779 -4.481848 -8.389247 2.112112 -14.768619 0.000003 -0.000000 0.000006 0.387321 3.131509 0.644084 0.662453 -2.396001 30.906644 0.662460 -2.395990 30.906654 -0.000000 0.000000 -0.000001 -0.709929 0.247544 13.910230 0.475085 -2.051034 26.079670 0.061174 -0.753323 9.288673 0.000001 0.000004 -0.000001 0.807573 -5.199893 19.769364 0.391836 -1.871427 23.646684 0.265338 -1.551038 19.413961 0.000001 -0.000003 -0.000003 1.997368 -15.634327 22.197606 0.462060 -2.024248 25.713740 0.462056 -2.024238 25.713767 -0.000002 0.000003 0.000006 -46.399087 9.758636 -11.417107 31.954255 1.083176 0.496686 51.369832 7.450070 22.319146 -18.959697 0.000003 -0.000002 -0.000000 -0.000000 -0.000000 15.695524 -19.782017 -12.776647 79.230126 8.766575 2.247428 -8.355060 1.073950 16.596549 -60.805957 0.007138 -0.161240 -0.000000 -0.000004 -0.000001 
-6.796041 65.445679 1.885971 -25.268954 4.860334 -6.877464 15.852685 9.787483 -4.605112 1.733672 2.341573 0.237003 1.751693 2.312428 0.222155 3.071387 -1.723650 0.182076 6.550496 -18.602939 9.432263 -0.000000 0.000000 0.000000 -0.605191 9.234478 -8.326862 26.165060 28.138614 -17.613250 0.000011 -45.950268 -0.000008 13.373663 -5.847783 -8.208784 -28.876394 12.862234 -7.151284 0.615557 18.447544 14.372364 -12.521323 -5.786450 14.078272 0.000000 -0.000001 0.000001 2.298352 12.542581 -37.013789 1.073587 3.381889 -35.215643 1.326725 3.714022 -39.304354 -0.000001 -0.000001 0.000001 0.793455 5.190812 -29.788490 1.078766 3.389182 -35.303120 0.718083 2.812220 -28.642827 -0.000001 -0.000001 0.000005 -0.617084 1.832262 -22.234790 1.093523 3.409909 -35.552166 0.372197 2.056669 -20.513700 0.000002 -0.000002 0.000001 2.148688 -3.624578 -12.866801 0.835133 3.016397 -30.944783 0.658863 2.701094 -27.411462 0.000001 -0.000004 0.000003 0.126559 4.416625 1.979452 33.099370 -18.125307 14.526057 0.000012 49.875766 0.000002 23.347682 0.251532 21.618671 -8.551084 -2.790664 1.407850 7.168956 -11.047301 -6.265330 -8.094356 2.547999 -12.306929 0.000003 -0.000000 -0.000002 1.447949 3.936760 0.078184 0.444771 -1.987950 25.219584 0.495013 -2.091269 26.631654 -0.000001 0.000001 -0.000003 -0.477546 -0.047431 11.189006 0.373595 -1.829340 23.083333 0.076820 -0.843313 10.410106 0.000003 0.000002 -0.000004 0.637864 -4.899124 17.022875 0.277727 -1.585765 19.867017 0.191596 -1.323402 16.474471 0.000000 -0.000001 -0.000002 1.692751 -14.201468 20.133470 0.264054 -1.547425 19.366863 0.420433 -1.935431 24.508165 -0.000001 -0.000002 0.000005 -41.214929 9.226144 -14.491443 19.451790 -1.260406 0.550606 56.836077 7.292075 20.128364 -18.414996 -0.000002 -0.000004 0.000000 0.000000 -0.000000 10.474583 -18.751600 -14.323546 75.829095 5.980447 2.125672 -2.372841 1.260072 19.528320 -61.203262 0.024812 -0.499506 -0.000000 -0.000000 -0.000000 
-6.256578 68.415726 0.846653 -22.717057 5.616348 -4.731902 17.145218 7.634247 -4.386108 2.105961 1.844547 0.347021 2.121710 1.811346 0.347496 2.710360 -1.526013 0.167720 4.587816 -16.929650 7.634357 -0.000000 0.000000 0.000000 0.822548 8.582009 -12.828361 23.147832 21.635936 -26.975887 0.000015 -43.556492 0.000004 10.651776 4.680312 -3.680885 -62.659397 31.183300 -12.341209 -7.407052 20.780661 27.225607 -15.729198 -4.619387 17.113686 0.000001 0.000001 -0.000001 1.190553 8.504641 -50.689013 1.666429 4.093109 -44.291185 2.291846 4.647024 -52.485035 -0.000001 0.000000 -0.000002 0.310349 4.728847 -38.799118 1.831647 4.255458 -46.560611 1.219250 3.578982 -37.614651 -0.000001 -0.000001 0.000007 -0.174536 3.485658 -29.590517 1.686695 4.113733 -44.574436 0.874965 3.081769 -31.693608 0.000002 -0.000001 0.000004 3.059491 -4.787922 -24.323036 0.808069 2.970860 -30.426577 0.481176 2.327029 -23.362433 -0.000004 0.000005 0.000002 -0.307658 5.153972 8.295385 35.980234 -16.019230 21.144389 0.000049 55.899276 -0.000021 18.026220 -5.395024 11.045023 -21.246891 -10.356730 5.120424 7.750234 -6.438662 -8.081206 -8.427551 2.983524 -11.024763 0.000003 0.000001 0.000001 2.614692 4.684040 -0.859293 0.240073 -1.477409 18.457753 0.330331 -1.724337 21.687905 0.000001 -0.000001 -0.000001 -0.246388 -0.400884 7.743544 0.257719 -1.529275 19.130711 0.094756 -0.935622 11.564817 -0.000001 -0.000001 -0.000004 0.452110 -4.521926 13.370248 0.160608 -1.213746 15.075052 0.117222 -1.039413 12.868804 -0.000003 -0.000001 -0.000003 1.460442 -12.483034 17.085503 0.097439 -0.948676 11.728327 0.359911 -1.796887 22.650359 -0.000001 -0.000001 -0.000001 -39.201348 7.367325 -15.776159 14.977514 -3.346256 0.401284 56.033229 3.174750 15.713419 -15.627111 0.000001 -0.000002 0.000000 -0.000000 -0.000000 6.883285 -17.983743 -15.729395 72.252391 4.068231 2.185152 1.424722 1.501843 21.127898 -60.817186 0.001865 -0.042982 -0.000000 0.000000 -0.000000 
-5.398105 70.704735 1.496384 -20.224998 6.347865 -3.328454 18.462792 5.753532 -3.483155 2.480200 1.342727 0.448137 2.493170 1.305941 0.464177 2.326463 -1.322637 0.142117 2.654796 -15.202891 5.901000 0.000000 0.000000 0.000000 2.106123 5.299384 -16.675533 16.096852 10.083831 -35.266206 0.000017 -36.043567 0.000019 8.365885 9.944028 0.950799 -89.681292 44.619826 -9.768817 -11.901079 18.469212 36.599432 -17.978026 -3.578719 20.450360 0.000002 -0.000004 -0.000000 0.421522 5.801549 -57.537001 1.866692 4.288286 -47.031200 2.852670 5.026706 -59.128859 -0.000002 -0.000000 -0.000001 -0.086481 4.504730 -42.990614 2.211367 4.584294 -51.484784 1.483108 3.896835 -41.660384 -0.000000 -0.000001 0.000003 0.254668 4.369897 -32.572230 1.951030 4.365105 -48.149029 1.229287 3.591957 -37.775263 -0.000002 0.000001 0.000006 3.128380 -5.780235 -30.153783 0.695110 2.769803 -28.171064 0.341565 1.972902 -19.642384 -0.000001 0.000001 -0.000001 -0.993977 4.977681 15.317413 34.502841 -9.510807 25.743239 0.000012 57.315423 0.000001 10.693712 -8.334607 0.001596 -34.228994 -18.480147 6.701870 9.411509 -2.896885 -10.383742 -11.397451 3.859486 -10.530191 0.000000 -0.000004 -0.000004 3.769023 5.273251 -1.405461 0.102333 -0.971989 12.020837 0.195924 -1.337912 16.660652 -0.000001 -0.000004 0.000001 -0.086876 -0.809131 4.713083 0.170275 -1.249091 15.525049 0.112741 -1.019564 12.618955 0.000005 -0.000000 -0.000009 0.306726 -4.128880 10.210076 0.081527 -0.868515 10.724742 0.064536 -0.773428 9.538818 -0.000001 0.000001 -0.000001 1.355482 -10.684130 14.573815 0.016256 -0.389132 4.782606 0.305301 -1.660064 20.840522 -0.000002 -0.000003 0.000004 -43.059435 5.266362 -12.874292 22.924760 -3.553143 0.065759 47.708260 -4.021707 3.161285 -11.134394 0.000005 0.000004 0.000000 -0.000001 -0.000000 4.600677 -16.896602 -13.712527 71.138620 1.573348 1.783093 -3.834399 3.633632 16.377831 -54.411370 0.051770 -1.415079 -0.000000 -0.000000 -0.000000 
